# xmcd CD database file
#
# Track frame offsets:
#	150
#	6835
#	16554
#	30942
#	46656
#	63594
#	79796
#	100414
#	112338
#	126206
#	138107
#
# Disc length: 2029 seconds
#
# Revision: 0
# Processed by: cddbd v1.5.2PL0 Copyright (c) Steve Scherf et al.
# Submitted via: CDex 1.70beta2
#
DISCID=8107eb0b
DTITLE=Edith Piaf - La Vie, L'Amour Greenshow
DYEAR=2006
DGENRE=Jazz
TTITLE0=Sous le ciel a Paris
TTITLE1=La Goualante du Pauvre Jean
TTITLE2=Mon manege a moi
TTITLE3=Padam padam
TTITLE4=Hymne a l'amour
TTITLE5=L'accordeoniste
TTITLE6=Milord
TTITLE7=Marie-trottoir
TTITLE8=La foule
TTITLE9=Les flonflons du bal
TTITLE10=La vie en rose
EXTD=YEAR: 2006
EXTT0=
EXTT1=
EXTT2=
EXTT3=
EXTT4=
EXTT5=
EXTT6=
EXTT7=
EXTT8=
EXTT9=
EXTT10=
PLAYORDER=
